<svg xmlns="http://www.w3.org/2000/svg" width="40" height="40" viewBox="0 0 40 40" fill="none">
  <path d="M20.0002 11.3333C21.4009 11.3333 22.788 11.6092 24.0821 12.1453C25.3763 12.6813 26.5521 13.467 27.5426 14.4575C28.5331 15.448 29.3188 16.6239 29.8549 17.918C30.3909 19.2122 30.6668 20.5992 30.6668 22V32.6667H9.3335V22C9.3335 19.171 10.4573 16.4579 12.4577 14.4575C14.4581 12.4571 17.1712 11.3333 20.0002 11.3333V11.3333Z" fill="#FF5C74"></path>
  <path d="M20.0002 11.3333C19.4416 11.3382 18.8843 11.3872 18.3335 11.48C20.8397 11.8765 23.1226 13.1534 24.7721 15.0815C26.4216 17.0096 27.3298 19.4626 27.3335 22V32.6667H30.6668V22C30.6668 20.5992 30.3909 19.2122 29.8549 17.918C29.3188 16.6239 28.5331 15.448 27.5426 14.4575C26.5521 13.467 25.3763 12.6813 24.0821 12.1453C22.788 11.6092 21.4009 11.3333 20.0002 11.3333V11.3333Z" fill="#F23D60"></path>
  <path d="M21.6668 11.48C21.116 11.3872 20.5587 11.3382 20.0002 11.3333C17.1712 11.3333 14.4581 12.4571 12.4577 14.4575C10.4573 16.4579 9.3335 19.171 9.3335 22V32.6667H12.6668V22C12.6706 19.4626 13.5787 17.0096 15.2282 15.0815C16.8777 13.1534 19.1606 11.8765 21.6668 11.48V11.48Z" fill="#FF889F"></path>
  <path d="M6.6665 32.6667H33.3332C34.6665 32.6667 35.3332 33.3333 35.3332 34.6667C35.3332 36 34.6665 36.6667 33.3332 36.6667H6.6665C5.33317 36.6667 4.6665 36 4.6665 34.6667C4.6665 33.3333 5.33317 32.6667 6.6665 32.6667V32.6667Z" fill="white"></path>
  <path d="M33.3332 34.6667H6.6665C6.31748 34.6646 5.97508 34.5711 5.67333 34.3957C5.37159 34.2203 5.12101 33.9689 4.9465 33.6667C4.76675 33.9695 4.67016 34.3145 4.6665 34.6667C4.6665 35.1971 4.87722 35.7058 5.25229 36.0809C5.62736 36.456 6.13607 36.6667 6.6665 36.6667H33.3332C33.8636 36.6667 34.3723 36.456 34.7474 36.0809C35.1225 35.7058 35.3332 35.1971 35.3332 34.6667C35.3295 34.3145 35.2329 33.9695 35.0532 33.6667C34.8787 33.9689 34.6281 34.2203 34.3263 34.3957C34.0246 34.5711 33.6822 34.6646 33.3332 34.6667V34.6667Z" fill="#04223F"></path>
  <path d="M33.3331 31.6667H31.6664V22C31.6664 18.9058 30.4373 15.9383 28.2493 13.7504C26.0614 11.5625 23.094 10.3333 19.9998 10.3333C16.9056 10.3333 13.9381 11.5625 11.7502 13.7504C9.56227 15.9383 8.33311 18.9058 8.33311 22V31.6667H6.66644C5.87079 31.6667 5.10773 31.9827 4.54512 32.5453C3.98251 33.108 3.66644 33.871 3.66644 34.6667C3.66644 35.4623 3.98251 36.2254 4.54512 36.788C5.10773 37.3506 5.87079 37.6667 6.66644 37.6667H33.3331C34.1288 37.6667 34.8918 37.3506 35.4544 36.788C36.017 36.2254 36.3331 35.4623 36.3331 34.6667C36.3331 33.871 36.017 33.108 35.4544 32.5453C34.8918 31.9827 34.1288 31.6667 33.3331 31.6667ZM10.3331 22C10.3331 19.4362 11.3516 16.9775 13.1644 15.1646C14.9773 13.3518 17.436 12.3333 19.9998 12.3333C22.5635 12.3333 25.0223 13.3518 26.8351 15.1646C28.648 16.9775 29.6664 19.4362 29.6664 22V31.6667H10.3331V22ZM33.3331 35.6667H6.66644C6.40122 35.6667 6.14687 35.5613 5.95933 35.3738C5.7718 35.1862 5.66644 34.9319 5.66644 34.6667C5.66644 34.4014 5.7718 34.1471 5.95933 33.9596C6.14687 33.772 6.40122 33.6667 6.66644 33.6667H33.3331C33.5983 33.6667 33.8527 33.772 34.0402 33.9596C34.2277 34.1471 34.3331 34.4014 34.3331 34.6667C34.3331 34.9319 34.2277 35.1862 34.0402 35.3738C33.8527 35.5613 33.5983 35.6667 33.3331 35.6667ZM19.9998 8.33333C20.1766 8.33333 20.3462 8.26309 20.4712 8.13807C20.5962 8.01304 20.6664 7.84348 20.6664 7.66666V2.33333C20.6664 2.15652 20.5962 1.98695 20.4712 1.86193C20.3462 1.7369 20.1766 1.66666 19.9998 1.66666C19.823 1.66666 19.6534 1.7369 19.5284 1.86193C19.4033 1.98695 19.3331 2.15652 19.3331 2.33333V7.66666C19.3331 7.84348 19.4033 8.01304 19.5284 8.13807C19.6534 8.26309 19.823 8.33333 19.9998 8.33333ZM26.8331 10.1667C26.9092 10.2107 26.9933 10.2393 27.0804 10.2508C27.1676 10.2622 27.2562 10.2563 27.3411 10.2334C27.426 10.2105 27.5055 10.171 27.5751 10.1172C27.6446 10.0634 27.7029 9.99639 27.7464 9.92L30.4131 5.3C30.4928 5.14764 30.5106 4.97037 30.4626 4.80523C30.4147 4.64009 30.3049 4.49985 30.156 4.4138C30.0071 4.32775 29.8308 4.30255 29.6638 4.34346C29.4968 4.38437 29.352 4.48822 29.2598 4.63333L26.5931 9.25333C26.5487 9.32902 26.5198 9.41272 26.5078 9.49964C26.4959 9.58655 26.5012 9.67497 26.5235 9.75982C26.5458 9.84467 26.5846 9.92428 26.6378 9.9941C26.6909 10.0639 26.7573 10.1226 26.8331 10.1667ZM37.6064 11.8333C37.563 11.7533 37.5036 11.683 37.4319 11.6269C37.3603 11.5707 37.2779 11.5298 37.1898 11.5067C37.1017 11.4835 37.0098 11.4787 36.9198 11.4925C36.8298 11.5062 36.7436 11.5383 36.6664 11.5867L32.0464 14.2533C31.9013 14.3456 31.7975 14.4903 31.7566 14.6573C31.7157 14.8243 31.7409 15.0007 31.8269 15.1496C31.913 15.2984 32.0532 15.4083 32.2183 15.4562C32.3835 15.5041 32.5607 15.4864 32.7131 15.4067L37.3331 12.74C37.4109 12.6987 37.4797 12.6424 37.5356 12.5744C37.5915 12.5064 37.6333 12.4279 37.6587 12.3436C37.6841 12.2593 37.6926 12.1708 37.6836 12.0832C37.6747 11.9957 37.6484 11.9107 37.6064 11.8333ZM12.2531 9.92C12.3454 10.0651 12.4901 10.169 12.6571 10.2099C12.8241 10.2508 13.0005 10.2256 13.1493 10.1395C13.2982 10.0535 13.4081 9.91323 13.456 9.74809C13.5039 9.58295 13.4861 9.40569 13.4064 9.25333L10.7464 4.66666C10.6542 4.52155 10.5094 4.4177 10.3424 4.37679C10.1754 4.33588 9.99907 4.36108 9.8502 4.44714C9.70133 4.53319 9.59147 4.67343 9.54356 4.83857C9.49565 5.00371 9.5134 5.18097 9.59311 5.33333L12.2531 9.92ZM7.58644 15.5C7.73405 15.501 7.87783 15.453 7.99523 15.3636C8.11263 15.2741 8.19701 15.1482 8.23514 15.0056C8.27327 14.8629 8.26299 14.7117 8.20592 14.5756C8.14884 14.4394 8.0482 14.3261 7.91977 14.2533L3.33311 11.5867C3.18075 11.507 3.00348 11.4892 2.83834 11.5371C2.6732 11.585 2.53296 11.6949 2.44691 11.8438C2.36086 11.9926 2.33566 12.169 2.37657 12.336C2.41747 12.503 2.52133 12.6478 2.66644 12.74L7.28644 15.4067C7.37758 15.4612 7.48043 15.4932 7.58644 15.5Z" fill="white"></path>
</svg>