<svg xmlns="http://www.w3.org/2000/svg" width="40" height="40" viewBox="0 0 40 40" fill="none">
  <path d="M16.5664 37.457C16.5664 37.457 4.32812 35.9023 4.32812 26.332C4.32812 18.0508 18.6523 13.5273 16.5664 2.49219C16.5664 2.49219 27.4805 5.97656 27.0547 16.7969C27.0547 16.7969 28.7695 16.0781 28.8047 13.6172C28.8047 13.6172 35.7969 18.1758 35.7969 26.332C35.7969 35.7031 23.5625 37.457 23.5625 37.457C23.5625 37.457 27.0547 35.1211 27.0547 31.1016C27.0547 27.082 19.3125 25.8984 20.0664 19.9766C20.0625 19.9766 8.26953 25.8281 16.5664 37.457V37.457Z" fill="url(#paint0_linear_17_345)"></path>
  <defs>
    <linearGradient id="paint0_linear_17_345" x1="20.3636" y1="2.18182" x2="21.046" y2="37.438" gradientUnits="userSpaceOnUse">
      <stop stop-color="#FFF500"></stop>
      <stop offset="0.257764" stop-color="#FF9900"></stop>
      <stop offset="0.592515" stop-color="#FF002A"></stop>
      <stop offset="1" stop-color="#B5001E"></stop>
    </linearGradient>
  </defs>
</svg>