<svg xmlns="http://www.w3.org/2000/svg" width="40" height="40" viewBox="0 0 40 40" fill="none">
  <path d="M29.7032 12.8242C25.8009 11.5898 23.3438 6.22656 19.5626 6.03125V6.02734C19.5352 6.02734 19.5118 6.02344 19.4806 6.02344H19.3477C19.3243 6.02344 19.297 6.02344 19.2657 6.02734V6.03125C15.4845 6.22656 13.0274 11.5898 9.12509 12.8281C4.90244 14.1641 -0.13272 11.457 1.50791 17.1719C2.67197 21.2227 9.45712 28.2188 19.2657 28.3164H19.5626C29.3712 28.2109 36.1563 21.2148 37.3204 17.1719C38.961 11.4531 33.9259 14.1641 29.7032 12.8242V12.8242Z" fill="#0073FF"></path>
  <path d="M5.79688 26.2461C8.68359 30.3164 13.6484 33 19.2852 33C24.9258 33 29.8867 30.3125 32.7734 26.2461H5.79688Z" fill="#0073FF"></path>
  <path d="M14.0664 30.4648C13.9687 30.4648 13.875 30.4297 13.7969 30.3633C13.6484 30.2305 13.6484 30.0039 13.7969 29.8711L15.7461 28.0625C15.8945 27.9297 16.1289 27.9297 16.2773 28.0625C16.4258 28.1953 16.4258 28.4219 16.2773 28.5547L14.3281 30.3633C14.2578 30.4336 14.1602 30.4648 14.0664 30.4648V30.4648ZM16.0156 31.543C15.9141 31.543 15.8164 31.5078 15.7383 31.4375C15.5859 31.293 15.5859 31.0625 15.7383 30.9219L19.1953 27.7109C19.3477 27.5664 19.5977 27.5664 19.7539 27.7109C19.9063 27.8555 19.9063 28.0859 19.7539 28.2266L16.2969 31.4375C16.2148 31.5078 16.1172 31.543 16.0156 31.543ZM18.7188 31.9023C18.6172 31.9023 18.5195 31.8672 18.4414 31.7969C18.2891 31.6523 18.2891 31.4219 18.4414 31.2812L21.8984 28.0703C22.0508 27.9258 22.3008 27.9258 22.457 28.0703C22.6094 28.2148 22.6094 28.4453 22.457 28.5859L18.9961 31.793C18.9219 31.8633 18.8203 31.9023 18.7188 31.9023V31.9023Z" fill="black"></path>
  <path d="M5.60547 22.993C5.60547 22.8825 5.69501 22.793 5.80547 22.793H32.7844C32.8948 22.793 32.9844 22.8825 32.9844 22.993V26.05C32.9844 26.1605 32.8948 26.25 32.7844 26.25H5.80547C5.69501 26.25 5.60547 26.1605 5.60547 26.05V22.993Z" fill="#A8A8A8"></path>
  <path d="M6.53906 23.6562H32.7773V23.0547H5.8125V25.9805H6.53906V23.6562Z" fill="white"></path>
  <path d="M22.1135 13.8906C22.4573 13.1406 22.7776 12.5938 22.1409 12.9102C22.1409 12.9102 20.1487 13.6055 19.3674 12.043C18.5862 13.6055 16.594 12.9102 16.594 12.9102C15.9573 12.5938 16.2776 13.1406 16.6213 13.8906C16.9651 14.6406 16.8205 14.6133 16.3909 16.5195C15.9534 18.4258 17.5432 19.0625 18.5823 19.3203C18.8401 19.9297 19.3635 19.9297 19.3635 19.9297C19.3635 19.9297 19.887 19.9297 20.1448 19.3203C21.1838 19.0625 22.7737 18.4258 22.3362 16.5195C21.9104 14.6094 21.7659 14.6367 22.1135 13.8906Z" fill="#FFE600"></path>
  <path d="M33.9727 30.1016C33.8008 30.0195 33.6914 30 33.6328 30.0234C33.7148 30.0469 33.832 30.0742 33.9727 30.1016Z" fill="#0F0F0F"></path>
</svg>